Coordinates
version=1
nRows=8
nColumns=42
inDegrees=yes

Units are S.I. units (second, meters, Newtons, ...)
If the header above contains a line with 'inDegrees', this indicates whether rotational values are in degrees (yes) or radians (no).

endheader
time	pelvis_tilt	pelvis_list	pelvis_rotation	pelvis_tx	pelvis_ty	pelvis_tz	hip_flexion_r	hip_adduction_r	hip_rotation_r	knee_angle_r	knee_adduction_r	knee_angle_r_beta	ankle_angle_r	subtalar_angle_r	mtp_angle_r	hip_flexion_l	hip_adduction_l	hip_rotation_l	knee_angle_l	knee_adduction_l	knee_angle_l_beta	ankle_angle_l	subtalar_angle_l	mtp_angle_l	lumbar_extension	lumbar_bending	lumbar_rotation	arm_flex_r	arm_add_r	arm_rot_r	elbow_flex_r	pro_sup_r	wrist_flex_r	wrist_dev_r	arm_flex_l	arm_add_l	arm_rot_l	elbow_flex_l	pro_sup_l	wrist_flex_l	wrist_dev_l
      1.04000000	     11.10036819	      3.23115790	      8.80306575	     -1.61766506	      0.91215969	      0.00511859	     10.20357116	    -12.57095291	    -27.62072640	     26.82467223	      7.67741896	      0.46817885	     10.28378802	     31.60060384	     -7.90936244	    -17.26282935	      5.87079598	     -4.55332385	     17.85900761	     -3.48345384	      0.31169848	     19.30955005	      3.91386086	     -7.90936244	    -31.73233120	     -5.54046445	    -10.74139090	    -25.54980093	    -14.58629649	     10.79904637	     46.22305540	     90.00000001	      0.00000000	      0.00000000	     29.85718156	    -13.66486143	      4.20115575	     40.52952363	     90.00000001	      0.00000000	      0.00000000
      1.05000000	     11.26792131	      3.13126535	      8.81388158	     -1.60879148	      0.91160853	      0.00552586	      9.64730748	    -12.26013786	    -29.41188457	     24.91962289	      7.65916496	      0.43492947	      9.16040237	     33.33563226	     -7.89887179	    -18.14478894	      5.51369919	     -4.39218751	     17.70029659	     -3.24160974	      0.30892845	     19.24708119	      3.71732516	     -7.89887179	    -31.71632430	     -5.38768502	    -10.56180714	    -25.84371084	    -14.44983584	     10.36603206	     46.20011967	     90.00000001	      0.00000000	      0.00000000	     29.92444329	    -13.63189631	      4.63480126	     40.31439853	     90.00000001	      0.00000000	      0.00000000
      1.06000000	     11.26981479	      3.17394189	      8.82366157	     -1.59998334	      0.91084672	      0.00573417	      9.23236411	    -12.20943344	    -30.73386227	     23.20565544	      7.94837570	      0.40501509	      8.15100410	     34.45665475	     -7.89061513	    -18.81755709	      5.44060318	     -4.24727773	     17.63233105	     -3.24329633	      0.30774223	     19.22354324	      3.65742516	     -7.89061513	    -31.55004369	     -5.37344986	    -10.47382687	    -26.02140239	    -14.35316373	     10.12513170	     46.08290087	     90.00000001	      0.00000000	      0.00000000	     29.96808888	    -13.57611327	      4.94517561	     39.92797834	     90.00000001	      0.00000000	      0.00000000
      1.07000000	     11.15349509	      3.27471106	      8.89181485	     -1.59125513	      0.90993372	      0.00574577	      8.92935914	    -12.29277957	    -31.86795357	     21.75721865	      8.31866376	      0.37973510	      7.45647270	     35.25668359	     -7.88822438	    -19.34297416	      5.47013613	     -4.10724802	     17.57530514	     -3.33737874	      0.30674694	     19.12944311	      3.69865662	     -7.88822438	    -31.28379519	     -5.38249338	    -10.47901060	    -26.08279446	    -14.30152853	      9.99406383	     45.93182863	     90.00000001	      0.00000000	      0.00000000	     29.98812797	    -13.50054912	      5.15853289	     39.49857344	     90.00000001	      0.00000000	      0.00000000
      1.08000000	     10.96729753	      3.39412071	      8.65063647	     -1.58236827	      0.90881260	      0.00635993	      8.98551131	    -12.41881656	    -32.68437396	     21.12510718	      8.58024678	      0.36870268	      7.37904093	     35.31593549	     -7.88797605	    -19.80687092	      5.54982843	     -4.24283255	     17.53872874	     -3.26075557	      0.30610856	     19.17747822	      3.65306200	     -7.88797605	    -30.92852398	     -5.55341096	    -10.23411388	    -26.11910209	    -14.31865578	      9.96216892	     45.85764304	     90.00000001	      0.00000000	      0.00000000	     29.83707053	    -13.44201281	      5.21490904	     39.37462884	     90.00000001	      0.00000000	      0.00000000
      1.09000000	     11.24082997	      3.15407156	      8.93161676	     -1.57305671	      0.90888572	      0.00649070	      7.90991956	    -11.92274319	    -33.90486203	     19.33509791	      8.89388418	      0.33746112	      5.59946349	     36.36733159	     -7.88471846	    -20.79086804	      4.95876744	     -3.94789725	     17.37855629	     -3.14706761	      0.30331303	     18.87966840	      3.71048424	     -7.88471846	    -31.00377048	     -5.06827517	    -10.18332766	    -25.98682496	    -14.15618055	      9.60886507	     45.47293106	     90.00000001	      0.00000000	      0.00000000	     29.84484977	    -13.36931692	      5.53800293	     38.83211359	     90.00000001	      0.00000000	      0.00000000
      1.10000000	     11.35297462	      2.96849496	      8.92351700	     -1.56368080	      0.90859645	      0.00710737	      7.33493899	    -11.52000597	    -34.47539815	     18.40155018	      9.09413868	      0.32116764	      4.87781615	     36.48096009	     -7.87830725	    -21.56894415	      4.53368820	     -3.90345472	     17.30093966	     -3.00169788	      0.30195836	     18.70036893	      3.62249634	     -7.87830725	    -30.90267941	     -4.77456262	     -9.95988674	    -25.82946659	    -14.08756310	      9.34198625	     45.23306829	     90.00000001	      0.00000000	      0.00000000	     29.63086928	    -13.34745899	      5.69944213	     38.64107881	     90.00000001	      0.00000000	      0.00000000
      1.11000000	     11.29567307	      2.92900996	      8.85296276	     -1.55427964	      0.90803313	      0.00764511	      7.08269605	    -11.42635939	    -34.77927452	     18.12645685	      9.29925925	      0.31636635	      4.68428706	     36.43628730	     -7.87611435	    -22.10120658	      4.36495649	     -3.93786836	     17.38853927	     -2.97864929	      0.30348726	     18.57420330	      3.56097360	     -7.87611435	    -30.64287006	     -4.65226259	     -9.76080977	    -25.62411022	    -14.07317910	      9.29552266	     45.01658774	     90.00000001	      0.00000000	      0.00000000	     29.33739798	    -13.30075174	      5.75296853	     38.45937910	     90.00000001	      0.00000000	      0.00000000
